# xmcd
#
# Track frame offsets:
#	150
#	11945
#	34688
#	53452
#	71687
#	90996
#	114557
#	136970
#	158590
#	180267
#
# Disc length: 2644 seconds
#
# Revision: 1
# Processed by: cddbd v1.5.2PL0 Copyright (c) Steve Scherf et al.
# Submitted via: EasyCDDAExtractor 16.0.9.1
#
DISCID=720a520a
DTITLE=Phương Nga - HGCD: Bóng Cây Kơ Nia
DYEAR=2004
DGENRE=Country
TTITLE0=Bài Ca Phụ Nữ Việt Nam (Nguyễn Văn Tý)
TTITLE1=Tiếng Hát Giữa Rừng Pắc Bó (Nguyễn Tài Tuệ)
TTITLE2=Nổi Lửa Lên Em (Giang Lam - Huy Du)
TTITLE3=Áo Mùa Đông (Đỗ Nhuận)
TTITLE4=Bến Cảng Quê Hương Tôi (Hồ Bắc)
TTITLE5=Bóng Cây Kơ Nia (Phan Huỳnh Điểu - Ngọc Anh)
TTITLE6=Bài Ca Hy Vọng (Văn Ký)
TTITLE7=Bác Hồ Sống Mãi Với Tây Nguyên (Lê Lôi)
TTITLE8=Một Mùa Xuân Nho Nhỏ (Trần Hoàn - Thanh Hải)
TTITLE9=Cánh Chim Báo Tin Vui (Đàm Thanh)
EXTD=
EXTT0=
EXTT1=
EXTT2=
EXTT3=
EXTT4=
EXTT5=
EXTT6=
EXTT7=
EXTT8=
EXTT9=
PLAYORDER=
